<?xml version="1.0" encoding="UTF-8"?>
<!DOCTYPE svg PUBLIC "-//W3C//DTD SVG 1.1//EN" "http://www.w3.org/Graphics/SVG/1.1/DTD/svg11.dtd">
<svg height="512px" style="enable-background:new 0 0 512 512;" version="1.1" viewBox="0 0 512 512" width="512px" xml:space="preserve" xmlns="http://www.w3.org/2000/svg" xmlns:xlink="http://www.w3.org/1999/xlink"><g id="_x34_76_x2C__Analysis_x2C__data_x2C__information_x2C__research_x2C__science"><g><path d="M379.039,173.416c3.347-5.587,6.408-11.031,9.16-16.335    c17.356-33.437,22.318-59.925,10.734-71.495c-11.586-11.6-38.073-6.637-71.51,10.72c-5.275,2.751-10.734,5.813-16.307,9.161    c4.113,17.554,7.373,37.207,9.6,58.335c10.167,1.079,19.979,2.382,29.382,3.914C360.266,169.361,369.936,171.26,379.039,173.416     M182.816,362.463c5.291-2.751,10.735-5.814,16.321-9.16c-4.125-17.526-7.387-37.18-9.598-58.308    c-8.168-0.88-16.081-1.872-23.752-3.035c-12.208-1.843-23.794-4.056-34.584-6.579c-3.346,5.559-6.41,11.031-9.16,16.307    c-17.356,33.438-22.32,59.925-10.736,71.523C122.894,384.782,149.381,379.819,182.816,362.463z M194.161,193.183    c3.971-4.196,8.055-8.366,12.224-12.535c4.155-4.169,8.337-8.253,12.534-12.223c-7.854,0.454-15.54,1.021-23.027,1.729    C195.168,177.67,194.587,185.355,194.161,193.183z M303.871,278.121c-4.169,4.168-8.353,8.253-12.55,12.223    c7.842-0.426,15.527-1.021,23.029-1.73c0.709-7.486,1.29-15.172,1.73-23.027C312.109,269.783,308.041,273.952,303.871,278.121z     M249.618,141.143c-15.2-12.252-30.089-22.943-44.241-31.849c-1.262,5.531-2.425,11.259-3.517,17.158    c-2.113,11.542-3.885,23.794-5.261,36.641c9.798-0.907,19.879-1.588,30.217-2.042C234.433,154.074,242.06,147.41,249.618,141.143z     M338.883,229.398c-4.795-5.814-9.813-11.685-15.061-17.525c0.156,5.785,0.227,11.627,0.227,17.525s-0.07,11.713-0.227,17.498    C329.069,241.055,334.088,235.184,338.883,229.398z M375.197,279.113c-8.893-14.123-19.569-29.04-31.821-44.241    c-6.282,7.571-12.946,15.201-19.922,22.83c-0.454,10.322-1.136,20.419-2.042,30.202    C340.811,285.807,358.904,282.828,375.197,279.113z M311.103,353.303c5.573,3.346,11.032,6.409,16.321,9.16    c33.437,17.356,59.924,22.319,71.51,10.748c11.57-11.57,6.622-38.086-10.734-71.523c-2.752-5.275-5.813-10.72-9.16-16.307    c-17.54,4.112-37.18,7.373-58.336,9.614c-1.787,17.044-4.254,33.152-7.317,47.956    C312.648,346.468,311.897,349.928,311.103,353.303z M260.622,317.626c15.201,12.251,30.104,22.943,44.227,31.849    c0.597-2.609,1.178-5.246,1.73-7.913c2.921-14.179,5.305-29.551,7.063-45.886c-9.799,0.907-19.881,1.588-30.219,2.041    C275.81,304.723,268.18,311.359,260.622,317.626z M237.608,298.115c5.87,5.217,11.713,10.236,17.526,15.029    c5.8-4.793,11.641-9.813,17.498-15.059c-5.771,0.17-11.614,0.256-17.512,0.256C249.235,298.342,243.394,298.256,237.608,298.115z     M193.65,254.838c5.673,6.153,11.557,12.279,17.654,18.377c6.112,6.098,12.224,11.968,18.364,17.64    c8.336,0.341,16.832,0.511,25.453,0.511s17.113-0.17,25.466-0.511c6.126-5.672,12.252-11.542,18.35-17.64    s11.996-12.224,17.653-18.377c0.34-8.338,0.496-16.818,0.496-25.439s-0.17-17.129-0.496-25.467    c-5.672-6.126-11.556-12.252-17.653-18.35c-6.083-6.098-12.209-11.996-18.35-17.668c-8.336-0.34-16.845-0.481-25.466-0.481    s-17.116,0.17-25.453,0.481c-6.126,5.672-12.252,11.543-18.35,17.64c-6.098,6.098-11.996,12.252-17.668,18.378    c-0.341,8.338-0.497,16.846-0.497,25.467S193.31,246.5,193.65,254.838z M171.36,229.398c4.792,5.785,9.813,11.656,15.059,17.498    c-0.156-5.785-0.227-11.627-0.227-17.498c0-5.898,0.07-11.74,0.227-17.525C181.172,217.743,176.152,223.584,171.36,229.398z     M135.059,179.655c8.877,14.151,19.569,29.04,31.805,44.241c6.282-7.572,12.933-15.201,19.924-22.801    c0.454-10.323,1.133-20.42,2.042-30.232C169.431,172.963,151.338,175.94,135.059,179.655z M122.042,157.081    c2.75,5.304,5.813,10.748,9.16,16.308c17.541-4.113,37.18-7.374,58.337-9.587c1.417-13.527,3.26-26.46,5.501-38.597    c1.248-6.836,2.609-13.415,4.097-19.738c-5.571-3.348-11.03-6.41-16.321-9.161c-33.435-17.356-59.923-22.291-71.51-10.72    C99.722,97.156,104.686,123.645,122.042,157.081z M249.634,317.654c-7.574-6.295-15.201-12.932-22.817-19.938    c-10.323-0.425-20.418-1.134-30.217-2.041c2.099,19.398,5.076,37.492,8.791,53.77    C219.529,340.569,234.433,329.877,249.634,317.654z M323.454,201.066c6.976,7.629,13.64,15.258,19.922,22.83    c12.252-15.201,22.929-30.118,31.835-44.241c-8.311-1.9-17.059-3.602-26.234-5.077c-8.818-1.445-18.037-2.693-27.564-3.715    C322.318,180.647,323,190.744,323.454,201.066z M291.321,168.425c4.197,3.97,8.381,8.054,12.55,12.223    c4.17,4.169,8.238,8.339,12.21,12.535c-0.44-7.854-1.021-15.541-1.73-23.028C306.849,169.446,299.163,168.85,291.321,168.425z     M186.788,257.674c-6.991-7.601-13.642-15.23-19.924-22.802c-12.236,15.201-22.927,30.118-31.819,44.241    c9.941,2.27,20.575,4.283,31.777,5.956c7.119,1.077,14.464,2.014,22.008,2.835C187.921,278.092,187.242,268.024,186.788,257.674z     M206.384,278.121c-4.169-4.169-8.252-8.338-12.224-12.535c0.44,7.855,1.021,15.541,1.73,23.027    c7.501,0.709,15.188,1.305,23.027,1.73C214.721,286.374,210.554,282.289,206.384,278.121z M283.438,161.051    c10.323,0.454,20.405,1.135,30.204,2.042c-2.099-19.397-5.076-37.491-8.793-53.77c-14.137,8.876-29.039,19.567-44.227,31.819    C268.18,147.41,275.81,154.074,283.438,161.051z M236.247,32.213c-1.716-1.701-4.083-2.78-6.707-2.78    c-2.623,0-4.992,1.079-6.707,2.78c-1.702,1.729-2.78,4.084-2.78,6.691c0,2.639,1.078,4.992,2.78,6.723    c1.418,1.418,3.289,2.382,5.359,2.693h0.028l0.228,0.029l0,0h0.042h0.042h0.028h0.014h0.044l0.042,0.027h0.028h0.014h0.042h0.044    h0.028h0.014h0.042h0.042h0.014h0.03h0.056h0.028l0.056,0.029h0.03h0.042h0.014h0.042h0.042h0.03h0.014h0.042h0.056l0,0h0.028    h0.058h0.042c2.624,0,4.991-1.078,6.707-2.779c1.702-1.73,2.78-4.084,2.78-6.723v-0.056v-0.058l0,0v-0.057l-0.014-0.056v-0.029    v-0.056v-0.029v-0.027V38.48l-0.014-0.057v-0.029v-0.057v-0.027v-0.029v-0.057v-0.029v-0.027l-0.014-0.085l0,0l-0.014-0.058V37.97    v-0.028v-0.029v-0.057l-0.014-0.027v-0.058l-0.014-0.056l0,0l-0.016-0.115l-0.014-0.056l-0.056-0.368v-0.057l0,0    C238.488,35.219,237.552,33.518,236.247,32.213z M243.338,29.972c1.275,1.957,2.155,4.226,2.495,6.636v0.058l0.028,0.198    l0.014,0.113l0.014,0.057v0.057l0.014,0.113v0.029l0.014,0.057v0.113v0.029l0.014,0.084l0.014,0.113v0.028v0.085v0.086    l0.016,0.027v0.086l0.014,0.113v0.028v0.085v0.113l0,0v0.085l0.014,0.114v0.027v0.086v0.113l0,0v0.113v0.084    c0,4.566-1.844,8.679-4.808,11.656c-2.978,2.979-7.103,4.821-11.641,4.821h-0.072h-0.084h-0.056l0,0h-0.086h-0.07h-0.058    l-0.014-0.028h-0.07h-0.07h-0.058h-0.028h-0.056h-0.086h-0.042h-0.028h-0.072h-0.07h-0.042l-0.028-0.027h-0.086h-0.056h-0.028    h-0.058h-0.056c-1.418-0.143-2.793-0.426-4.083-0.879c-6.508,12.591-12.251,28.784-16.988,47.729    c15.314,9.502,31.508,21.072,48.028,34.457c16.519-13.385,32.712-24.955,48.027-34.457c-1.574-6.324-3.263-12.336-5.077-18.008    c-11.358-35.932-26.573-58.166-42.95-58.166c-2.439,0-4.836,0.51-7.161,1.446C246.428,28.072,244.868,28.922,243.338,29.972z     M441.658,203.705c1.729-1.702,2.779-4.084,2.779-6.693s-1.05-4.992-2.779-6.693c-1.702-1.729-4.084-2.779-6.693-2.779    s-4.992,1.05-6.708,2.779c-1.403,1.418-2.396,3.289-2.68,5.36v0.028l-0.028,0.199v0.027h-0.014v0.028l-0.014,0.113v0.028v0.029    v0.027l0,0v0.057v0.029l-0.028,0.142v0.028l0,0v0.029v0.027v0.057l0,0v0.028v0.028v0.029v0.056v0.029v0.028v0.027v0.029v0.027    l-0.014,0.029v0.028v0.028l0,0v0.057v0.028v0.028c0,2.609,1.063,4.991,2.777,6.721c1.716,1.701,4.085,2.751,6.708,2.751h0.07    h0.042h0.044h0.07h0.015h0.071h0.057h0.014h0.07h0.028h0.058h0.07l0,0h0.086l0.028-0.028h0.042h0.086h0.07h0.042h0.028    l0.086-0.027l0,0h0.056h0.072h0.014l0.085-0.029h0.014l0.198-0.027h0.044h0.028l0.084-0.029l0,0h0.071h0.043    C438.652,205.945,440.353,205.037,441.658,203.705z M446.394,208.865c-2.282,2.184-5.19,3.744-8.45,4.34h-0.072h-0.057    l-0.382,0.085h-0.114l-0.057,0.028h-0.086l-0.254,0.029l-0.072,0.027h-0.056h-0.128h-0.028l-0.099,0.028h-0.1h-0.028h-0.142    l-0.043,0.028h-0.086h-0.126l0,0h-0.128l-0.07,0.029h-0.058h-0.143h-0.028h-0.098h-0.101h-0.028h-0.142h-0.042h-0.086h-0.127    c-4.537,0-8.679-1.844-11.643-4.822c-2.964-2.949-4.806-7.09-4.806-11.627v-0.057v-0.057v-0.057v-0.029v-0.027v-0.057v-0.058    v-0.056v-0.029v-0.028v-0.085v-0.057v-0.028v-0.028v-0.057l0.014-0.057v-0.057v-0.029v-0.027l0.014-0.058v-0.056v-0.058l0,0    v-0.056v-0.057l0.015-0.086v-0.027l0.014-0.029v-0.057v-0.057v-0.057l0,0l0.014-0.057v-0.057l0.015-0.058v-0.028v-0.027v-0.058    l0.014-0.057v-0.056h0.016c0.057-0.682,0.171-1.305,0.325-1.958c-10.55-4.424-22.871-8.394-36.627-11.825    c-9.486,15.313-21.071,31.508-34.442,48.041c13.371,16.506,24.942,32.699,34.442,48.014c6.326-1.56,12.338-3.262,18.023-5.076    c35.918-11.345,58.152-26.574,58.152-42.938c0-3.771-1.206-7.487-3.517-11.117C452.944,215.076,450.053,211.9,446.394,208.865z     M260.864,440.056c2.353,2.354,5.643,3.829,9.244,3.829c3.603,0,6.878-1.475,9.245-3.829c2.369-2.354,3.829-5.644,3.829-9.245    c0-3.545-1.39-6.749-3.658-9.075l-0.171-0.17c-1.956-1.957-4.537-3.318-7.415-3.715l0,0l-0.469-0.058h-0.028h-0.056H271.3h-0.028    l-0.042-0.027h-0.072h-0.056h-0.028h-0.086h-0.042h-0.028l-0.086-0.029h-0.057h-0.014h-0.084h-0.059h-0.027h-0.085h-0.058h-0.014    h-0.084h-0.072h-0.015h-0.069h-0.086c-3.602,0-6.892,1.475-9.244,3.829c-0.455,0.425-0.852,0.907-1.25,1.417l-0.027,0.029    l-0.057,0.085l-0.028,0.028l-0.426,0.624l0,0l-0.07,0.142l-0.084,0.113l-0.017,0.028l-0.14,0.255l0,0l-0.086,0.143l0,0    l-0.085,0.142l0,0l-0.058,0.113v0.028l-0.084,0.113v0.029l-0.057,0.113l-0.016,0.027l-0.056,0.113l-0.015,0.029l-0.056,0.113    v0.028l-0.059,0.113l-0.027,0.028l-0.042,0.113l-0.015,0.029l-0.042,0.113l-0.014,0.027l-0.059,0.114v0.028l-0.056,0.113v0.028    l-0.057,0.113l-0.014,0.057l-0.044,0.085v0.057l-0.042,0.086l-0.014,0.057l-0.043,0.113l-0.014,0.057l-0.029,0.085l-0.028,0.057    l-0.028,0.085l-0.014,0.085l-0.028,0.085l-0.014,0.058l-0.028,0.085l-0.03,0.056l-0.014,0.085l-0.014,0.086l-0.028,0.085    l-0.028,0.057l-0.014,0.085l-0.015,0.086l-0.027,0.057l-0.015,0.113l-0.014,0.057l-0.03,0.084v0.058l-0.028,0.113v0.057    l-0.027,0.085l-0.015,0.058l-0.014,0.113l-0.014,0.057l-0.015,0.113v0.028l-0.028,0.142v0.028l-0.029,0.113v0.057l-0.028,0.113    v0.029v0.141l-0.014,0.029l-0.015,0.142v0.028l-0.014,0.113v0.028l-0.014,0.142v0.028l-0.015,0.143v0.028l-0.014,0.142v0.028    v0.142v0.028v0.143l0,0v0.17l0,0v0.17v0.028v0.057v0.028v0.028v0.028l0,0v0.057v0.028v0.028v0.057l0,0v0.029v0.027v0.028v0.058    l0,0v0.027v0.029v0.056v0.029v0.028l0,0v0.028v0.057l0.014,0.028v0.028v0.028l0,0v0.057l0.015,0.028    c0.212,3.148,1.56,6.041,3.63,8.196L260.864,440.056z M250.086,432.059c-0.014-0.397-0.028-0.823-0.028-1.248v-0.255l0,0V430.3    l0,0v-0.255h0.014l0.014-0.228v-0.028v-0.227v-0.028l0.028-0.228v-0.027l0.014-0.228v-0.028l0.014-0.227l0.016-0.028l0.014-0.198    l0.014-0.058l0.028-0.198v-0.057l0.028-0.198l0.014-0.058l0.028-0.169v-0.057l0.028-0.198l0.014-0.058l0.03-0.17l0.014-0.085    l0.028-0.171l0.014-0.085l0.042-0.141v-0.086l0.042-0.17l0.016-0.085l0.028-0.142l0.028-0.086l0.028-0.142l0.028-0.113    l0.028-0.142l0.03-0.085l0.042-0.142l0.028-0.113l0.028-0.114l0.042-0.113l0.028-0.113l0.03-0.114l0.028-0.141l0.042-0.113    l0.042-0.114l0.028-0.113l0.043-0.113l0.042-0.114l0.028-0.113l0.056-0.142l0.03-0.084l0.056-0.143l0.028-0.085l0.056-0.143    l0.03-0.085l0.056-0.141l0.028-0.085l0.056-0.143l0.03-0.057l0.07-0.17l0.028-0.057l0.07-0.171l0.03-0.057l0.07-0.142l0.014-0.085    l0.086-0.142l0.028-0.058l0.084-0.169l0.014-0.057l0.086-0.171l0.014-0.028l0.098-0.199l0.016-0.027l0.084-0.17l0.028-0.028    l0.086-0.199h0.028l0.098-0.198l0.016-0.028l0.112-0.198l0,0l0.114-0.199l0,0l0.112-0.198l0.016-0.028l0.126-0.17v-0.028    l0.128-0.199l0.128-0.198l0,0l0.126-0.198h0.016l0.112-0.17l0.014-0.029l0.128-0.169l0.014-0.029l0.128-0.17l0.014-0.028    l0.128-0.17l0.014-0.028l0.126-0.17h0.03l0.112-0.171l0.028-0.028l0.114-0.17l0.028-0.028l0.114-0.142l0.042-0.057l0.128-0.113    l0.028-0.058l0.114-0.142l0.042-0.028l0.112-0.142l0.044-0.057l0.282-0.283l0.044-0.057l0.098-0.143l0.072-0.057l0.098-0.085    l0.056-0.085l0.17-0.17c1.021-1.021,2.156-1.929,3.375-2.723l0,0l0.396-0.255l0,0l0.213-0.114l0,0l0.212-0.113l0.214-0.142    l0.411-0.228h0.014l0.213-0.112l0,0l0.212-0.114h0.016l0.198-0.085h0.015l0.212-0.113l0,0l0.227-0.113l0.229-0.085l0.212-0.113    l0.227-0.085l0,0l0.227-0.085l0.241-0.086l0.227-0.085l0,0l0.227-0.085l0.229-0.085l0.24-0.085l0.227-0.058l0.242-0.085    l0.226-0.056l0.255-0.085l0.229-0.058l0.254-0.057l0.227-0.057l0.256-0.057l0.24-0.058l0.242-0.056l0.255-0.029l0.24-0.056    l0.242-0.029l0.255-0.027l0.256-0.058h0.254l0.257-0.056h0.24l0.256-0.029l0.255-0.028h0.254l0.271-0.028h0.255h0.256h0.255h0.113    h0.129h0.014h0.112h0.114h0.027h0.087h0.126h0.044h0.084l0.114,0.028h0.07h0.042h0.128h0.086h0.042l0.114,0.028h0.099h0.014    l0.229,0.029h0.014h0.126l0.229,0.027l0.112,0.028h0.028c3.007,0.341,5.829,1.334,8.296,2.864    c8.764-13.386,16.434-33.039,22.461-57.173c-15.329-9.501-31.522-21.071-48.041-34.429c-16.52,13.357-32.714,24.928-48.028,34.429    c1.502,6.041,3.12,11.798,4.82,17.271C222.153,406.506,235.538,428.002,250.086,432.059z M66.315,251.888    c-2.793,2.808-4.538,6.665-4.538,10.947c0,4.254,1.73,8.14,4.523,10.919c2.822,2.808,6.679,4.537,10.96,4.537    c4.255,0,8.14-1.729,10.92-4.537c2.099-2.07,3.601-4.766,4.225-7.799l0,0l0.056-0.285l0.014-0.056l0.07-0.426v-0.028v-0.057    l0.016-0.057l0.014-0.057l0,0v-0.029v-0.056l0.014-0.058l0.014-0.057l0,0v-0.027v-0.058l0.014-0.113l0,0l0.014-0.056v-0.029    v-0.057v-0.057l0,0l0.028-0.057v-0.057v-0.029v-0.027v-0.028v-0.057l0.014-0.058v-0.056l0,0l0.014-0.058v-0.027v-0.057v-0.058l0,0    v-0.056v-0.058l0.014-0.056v-0.029l0,0v-0.057v-0.057l0.014-0.057v-0.028v-0.028v-0.057v-0.058v-0.028v-0.027v-0.029v-0.057    v-0.057v-0.057l0,0v-0.057v-0.057v-0.028v-0.057v-0.198v-0.199v-0.198l-0.014-0.198l-0.014-0.199l-0.014-0.197l-0.014-0.199    l-0.028-0.199l-0.014-0.197l0,0l-0.014-0.199l-0.028-0.17l0,0l-0.03-0.199l-0.028-0.198l-0.042-0.198l-0.028-0.17l-0.042-0.198    l0,0l-0.044-0.199l-0.042-0.171l-0.042-0.197l-0.042-0.199l0,0l-0.058-0.17l-0.042-0.17v-0.028l-0.042-0.17H92.08l-0.058-0.171    l-0.056-0.199l-0.056-0.169l0,0l-0.072-0.17v-0.028l-0.056-0.171l0,0l-0.056-0.171h-0.014l-0.058-0.17H91.64l-0.056-0.17l0,0    l-0.086-0.17v-0.028l-0.056-0.17h-0.014l-0.227-0.511h-0.014l-0.072-0.17l0,0c-0.751-1.504-1.744-2.864-2.934-4.056    c-0.511-0.511-1.08-1.021-1.674-1.446l0,0l-0.751-0.538h-0.014l-0.625-0.397l0,0l-0.17-0.086l0,0l-0.653-0.367l0,0l-0.51-0.256    l0,0l-0.17-0.057v-0.029l-0.168-0.057l0,0l-0.17-0.085l0,0l-0.17-0.056l0,0l-0.17-0.086l0,0l-0.184-0.057l0,0l-0.186-0.057v-0.028    l-0.168-0.058l0,0l-0.186-0.056l0,0l-0.184-0.058l-0.17-0.056l-0.184-0.057l0,0l-0.184-0.058l0,0l-0.185-0.056l-0.184-0.029    v-0.028l-0.184-0.027l-0.185-0.057l-0.198-0.029l-0.184-0.057l0,0l-0.185-0.027l-0.198-0.029l-0.184-0.028l-0.184-0.028    l-0.198-0.029l0,0l-0.2-0.027l-0.198-0.028l0,0l-0.185-0.028h-0.198l-0.184-0.029l-0.198-0.027h-0.198h-0.198l-0.198-0.029h-0.2    h-0.198h-0.142h-0.056h-0.056h-0.128h-0.014l-0.114,0.029h-0.084h-0.028H76.51h-0.042h-0.086H76.27l0,0l-0.128,0.027h-0.056    h-0.072h-0.114l0,0l-0.126,0.029h-0.072h-0.042l-0.128,0.028h-0.028h-0.084l-0.1,0.028h-0.028h-0.128h-0.028l-0.084,0.027h-0.114    l0,0l-0.114,0.029h-0.07l-0.056,0.028h-0.128l0,0l-0.114,0.028l-0.07,0.029h-0.042l-0.114,0.027h-0.028l-0.086,0.028h-0.112    h-0.014l-0.114,0.028l-0.042,0.029h-0.086l-0.112,0.027l0,0l-0.114,0.029l-0.056,0.027h-0.058l-0.112,0.028h-0.014l-0.1,0.029    l-0.086,0.028h-0.028l-0.112,0.057h-0.03l-0.084,0.028l-0.114,0.028l0,0l-0.112,0.028l-0.058,0.028h-0.056l-0.114,0.057l0,0    l-0.112,0.028l-0.072,0.028h-0.042l-0.114,0.057h-0.014l-0.098,0.028l-0.086,0.028l-0.014,0.029l-0.098,0.027l-0.058,0.028    l-0.056,0.028l-0.114,0.029l0,0l-0.112,0.057h-0.058l-0.042,0.027l-0.112,0.058h-0.016l-0.084,0.028l-0.086,0.057h-0.028    l-0.112,0.057h-0.028l-0.072,0.028l-0.099,0.056l0,0l-0.114,0.058l-0.042,0.028l-0.058,0.029l-0.098,0.056h-0.014l-0.1,0.028    l-0.056,0.057h-0.028l-0.114,0.057h-0.028l-0.072,0.057l-0.112,0.057l-0.1,0.058l-0.028,0.028l-0.084,0.027l-0.086,0.057h-0.014    l-0.1,0.058l-0.354,0.227l-0.07,0.028l-0.084,0.057v0.029l-0.214,0.113l-0.098,0.057v0.027l-0.398,0.256l-0.042,0.028    l-0.156,0.113l0,0l-0.084,0.085l-0.566,0.455l-0.058,0.027l-0.028,0.028l-0.185,0.17l-0.056,0.028l-0.042,0.057l-0.086,0.086l0,0    l-0.084,0.057l-0.058,0.057l-0.269,0.254l-0.014,0.029h-0.03L66.315,251.888z M60.982,247.35l0.398-0.396l0.24-0.198    c0.326-0.312,0.639-0.624,0.979-0.907h0.014l0.425-0.369l0.086-0.057l0.084-0.086l0.1-0.084l0.17-0.113l0.084-0.086l0.056-0.027    l0.03-0.028l0.084-0.058l0.086-0.085h0.014l0.07-0.057l0.1-0.056l0.042-0.058l0.056-0.028l0.086-0.057l0.084-0.057l0,0    l0.086-0.057l0.737-0.511l0.042-0.028l0.34-0.199l0.1-0.056l0.014-0.029l0.07-0.028l0.1-0.057l0.056-0.057l0.042-0.028    c0.44-0.255,0.894-0.51,1.362-0.737h0.014l0.156-0.085c0.497-0.228,1.021-0.454,1.532-0.681h0.014l0.156-0.057l1.119-0.396    l0.156-0.058l0.084-0.028l0.256-0.085l0,0l0.653-0.198l0.126-0.028h0.044l0.17-0.057h0.056l0.114-0.028l0.141-0.057h0.014    l0.17-0.028l0.086-0.028l0.084-0.029l0.17-0.027h0.014l0.142-0.029l0.114-0.027h0.07l0.681-0.143h0.072l0.098-0.028l0.17-0.028    h0.014l0.17-0.029h0.086h0.084l0.34-0.056l0.128-0.028h0.042h0.184l0.042-0.028h0.142h0.142h0.028l0.17-0.028h0.086h0.084    l0.184-0.027h0.014h0.17l0.114-0.029h0.056h0.17h0.056h0.128h0.156h0.028h0.17l0.086-0.028h0.084h0.198h0.284l0.283,0.028l0,0    h0.284l0,0h0.284l0.296,0.029l0,0l0.271,0.027h0.014l0.284,0.028l0,0l0.282,0.028l0,0l0.271,0.028h0.014l0.269,0.028h0.016    l0.268,0.027l0,0l0.285,0.058l0,0l0.282,0.028l0,0l0.271,0.057h0.014l0.255,0.057H81.5l0.271,0.057l0,0l0.254,0.057h0.03    l0.254,0.058h0.014l0.256,0.056h0.014l0.254,0.058h0.014l0.256,0.085h0.014l0.255,0.085l0,0l0.256,0.058h0.028l0.24,0.084h0.014    l0.256,0.085l0,0l0.255,0.085h0.014c3.304,1.106,6.254,2.979,8.665,5.389c2.409,2.41,4.282,5.389,5.387,8.678l0,0l0.1,0.256v0.028    l0.07,0.228v0.027l0.086,0.256l0,0l0.084,0.255v0.028l0.072,0.256l0,0l0.07,0.255l0,0l0.056,0.255v0.028l0.086,0.255l0,0    l0.056,0.283l0,0l0.058,0.256v0.029l0.056,0.255l0,0l0.056,0.284l0,0l0.028,0.283l0,0l0.058,0.255v0.028l0.028,0.255l0,0    l0.042,0.284l0,0l0.042,0.283l0,0l0.03,0.283l0,0l0.028,0.284l0,0l0.028,0.283l0,0l0.014,0.284l0,0l0.014,0.283l0.014,0.283l0,0    l0.014,0.284l0,0v0.312v0.284v0.057v0.085v0.086v0.056l0,0v0.085v0.085v0.058v0.057v0.028v0.085l-0.014,0.057v0.086v0.027v0.057    l-0.014,0.057v0.086v0.084l0,0v0.058v0.085l-0.014,0.057v0.084v0.029l-0.014,0.057v0.057v0.086v0.084l0,0l-0.014,0.058    l-0.014,0.084v0.085v0.057l0,0l-0.014,0.086l-0.014,0.057v0.086v0.056v0.028l-0.016,0.057l-0.014,0.085v0.085v0.029l-0.014,0.027    l-0.014,0.086v0.057l-0.014,0.084l0,0l-0.014,0.086v0.057l-0.014,0.085l-0.014,0.058v0.085l-0.014,0.085l-0.014,0.057v0.057v0.027    l-0.028,0.058v0.085l-0.014,0.057l-0.016,0.057v0.029v0.084l-0.056,0.284l-0.028,0.056v0.086v0.028l-0.028,0.057v0.057    l-0.028,0.085l-0.03,0.199l-0.028,0.084l-0.24,1.021c8.693,3.233,18.419,6.182,28.969,8.82    c9.5-15.314,21.071-31.508,34.444-48.014c-13.373-16.533-24.944-32.728-34.444-48.041c-6.31,1.588-12.336,3.262-18.023,5.076    c-35.918,11.372-58.151,26.573-58.151,42.965c0,3.375,0.992,6.721,2.85,9.983C56.134,242.104,58.289,244.742,60.982,247.35z     M288.033,254.412c-0.271-0.397-0.611-0.795-1.021-1.162c-3.503,1.871-7.998,3.431-13.131,4.537l-2.255,0.453l0,0l-1.759,0.313    h-0.014l-0.284,0.057l-0.17,0.027l-0.724,0.115l-0.184,0.027l-0.114,0.028l-1.729,0.228h-0.114l-0.298,0.056h-0.057l-0.271,0.029    l-0.595,0.085h-0.014h-0.072l-0.254,0.027l-0.227,0.029h-0.086l-0.313,0.028h-0.07l-0.24,0.028l-0.639,0.085h-0.084l-0.242,0.028    h-0.24l-0.072,0.029l-0.325,0.027h-0.1h-0.227l-0.256,0.028h-0.057l-0.326,0.028h-0.1l-0.227,0.029l-0.269,0.027h-0.058    l-0.326,0.029h-0.112h-0.213l-0.284,0.027h-0.042l-0.341,0.028h-0.113h-0.213l-0.298,0.029h-0.028h-0.341l-0.128,0.028h-0.198    h-0.297h-0.029l-0.341,0.027h-0.14h-0.199h-0.312h-0.028l-0.326,0.029h-0.156h-0.184h-0.327h-0.014l-0.326,0.028h-0.17h-0.17    h-0.34l0,0h-0.341h-0.17h-0.17h-0.354h-0.34h-0.17h-0.17h-0.34h-0.014h-0.326h-0.185h-0.154l-0.326-0.028h-0.03h-0.311h-0.198    h-0.142l-0.34-0.029h-0.028h-0.313h-0.184h-0.143l-0.34-0.027h-0.028h-0.298h-0.198l-0.142-0.028h-0.327h-0.042l-0.283-0.029    H248.2h-0.126l-0.326-0.028h-0.042l-0.284-0.027h-0.226h-0.114l-0.313-0.029h-0.056l-0.284-0.027l-0.212-0.029h-0.1l-0.325-0.028    h-0.072l-0.254-0.028h-0.228h-0.084l-0.327-0.027l-0.07-0.029H244.5l-0.227-0.028h-0.086l-0.637-0.085l-0.242-0.028h-0.084    l-0.313-0.028h-0.084l-0.228-0.029l-0.254-0.027h-0.056h-0.014l-0.611-0.085l-0.254-0.029h-0.058l-0.311-0.056h-0.1l-1.73-0.228    l-0.128-0.028l-0.17-0.027l-0.737-0.115l-0.17-0.027l-0.282-0.057l0,0l-1.758-0.313l0,0l-2.269-0.453    c-3.517-0.766-6.736-1.73-9.53-2.865l-0.028-0.027l-0.184-0.057l-0.17-0.086c-1.147-0.482-2.213-0.964-3.204-1.502    c-0.413,0.367-0.753,0.765-1.035,1.162c-0.383,0.539-0.597,1.106-0.597,1.588c0,2.326,3.404,4.766,8.905,6.835    c6.566,2.438,15.726,3.97,25.935,3.97c10.225,0,19.385-1.531,25.936-3.97c5.503-2.069,8.905-4.509,8.905-6.835    C288.628,255.519,288.43,254.951,288.033,254.412z M288.033,240.176c-0.271-0.397-0.611-0.766-1.036-1.164    c-0.979,0.539-2.057,1.021-3.176,1.504h-0.016l-0.17,0.084l-0.198,0.058l-0.015,0.028c-0.694,0.284-1.418,0.539-2.169,0.822    h-0.056l-0.354,0.113v0.028l-0.2,0.058l-0.154,0.057l-0.058,0.028c-2.027,0.651-4.226,1.247-6.551,1.758l-2.255,0.454l0,0    l-1.759,0.313h-0.014l-0.284,0.056l-0.17,0.028l-0.425,0.057h-0.028l-0.284,0.057l-0.17,0.029l-0.114,0.028l-0.609,0.085    l-0.198,0.028l-0.921,0.113h-0.114l-0.313,0.057h-0.042l-0.271,0.028l-0.566,0.085h-0.056h-0.059l-0.254,0.029l-0.227,0.028    h-0.086l-0.313,0.027l-0.07,0.029h-0.24l-0.639,0.085h-0.084l-0.242,0.028h-0.24l-0.072,0.027l-0.325,0.029h-0.1l-0.227,0.028    h-0.256h-0.057l-0.34,0.028l-0.086,0.027h-0.227l-0.269,0.029h-0.058l-0.326,0.028h-0.112h-0.227l-0.271,0.028h-0.042    l-0.341,0.028h-0.113h-0.213l-0.298,0.028h-0.028l-0.341,0.027h-0.128h-0.198h-0.297h-0.029l-0.341,0.029h-0.14h-0.199    l-0.312,0.028h-0.028h-0.326h-0.156h-0.184h-0.327h-0.014l-0.326,0.028h-0.17h-0.17h-0.34l0,0h-0.341h-0.17h-0.17h-0.354h-0.34    h-0.17h-0.17h-0.34h-0.014h-0.326h-0.185h-0.154l-0.326-0.028h-0.03h-0.311h-0.198h-0.142h-0.34h-0.028l-0.313-0.028h-0.184    h-0.143l-0.34-0.029h-0.028h-0.298h-0.198h-0.142l-0.327-0.027h-0.042l-0.283-0.028H248.2h-0.126l-0.326-0.028h-0.042    l-0.284-0.028h-0.226h-0.114l-0.313-0.028h-0.056l-0.27-0.029h-0.227l-0.1-0.027l-0.325-0.028h-0.072h-0.254l-0.228-0.028h-0.084    l-0.327-0.029l-0.07-0.027H244.5l-0.227-0.028h-0.086l-0.637-0.085h-0.242l-0.084-0.029l-0.313-0.027h-0.084l-0.228-0.028    l-0.254-0.029h-0.056h-0.044l-0.581-0.085l-0.254-0.028h-0.058l-0.311-0.057h-0.1l-0.921-0.113l-0.198-0.028l-0.611-0.085    l-0.128-0.028l-0.17-0.029l-0.282-0.057h-0.014l-0.44-0.057l-0.17-0.028l-0.282-0.056l0,0l-1.758-0.313l0,0l-2.269-0.454    c-3.446-0.737-6.594-1.701-9.36-2.808l-0.17-0.057l-0.028-0.028l-0.184-0.058l-0.17-0.084h-0.014    c-1.133-0.482-2.199-0.965-3.176-1.504c-0.427,0.398-0.767,0.767-1.049,1.164c-0.383,0.539-0.597,1.105-0.597,1.588    c0,1.275,1.007,2.553,2.808,3.8c0.186,0.085,0.384,0.198,0.568,0.313c1.22,0.794,2.666,1.56,4.338,2.239l0.186,0.086h0.014    l0.198,0.085h0.028l0.369,0.142l0.142,0.057l0.056,0.029l0.198,0.056v0.029l0.198,0.056l0.114,0.057l0.1,0.029l0.212,0.057v0.027    l0.623,0.199h0.014l0.214,0.086l0.112,0.027l0.539,0.171l0.114,0.056l0.114,0.029l0.438,0.141l0.128,0.029l0.114,0.028    c1.204,0.368,2.495,0.709,3.827,0.992v0.028l0.511,0.086c3.134,0.68,6.58,1.219,10.239,1.531l0,0l0.313,0.027h0.126h0.156    l0.596,0.058l0.141,0.028h0.17h0.284h0.014l0.298,0.028l0.142,0.028h0.168l0.298,0.027l0,0h0.313h0.142l0.156,0.029h0.311l0,0    l0.313,0.028h0.142h0.17l0.298,0.028h0.014h0.297h0.156h0.156l0.298,0.029h0.014h0.313h0.156h0.156h0.311h0.014l0.313,0.027h0.142    h0.17h0.313l0,0h0.313h0.17h0.155h0.312h0.327h0.156h0.156h0.313l0,0h0.311h0.17h0.156l0.312-0.027h0.014h0.313h0.156h0.156h0.311    l0,0l0.312-0.029h0.142h0.171h0.298h0.015l0.298-0.028h0.154h0.156l0.299-0.028h0.014h0.298l0.171-0.029h0.142h0.311l0,0    l0.299-0.027h0.156l0.142-0.028l0.313-0.028l0,0h0.297h0.156l0.142-0.028l0.595-0.058h0.171h0.142l0.284-0.027h0.015    c3.672-0.313,7.117-0.822,10.223-1.531l0.511-0.086v-0.028c2.269-0.51,4.367-1.105,6.24-1.759l0.014-0.027l0.213-0.057    l0.396-0.142l0.014-0.029l0.198-0.056l0.044-0.029c2.068-0.794,3.843-1.674,5.274-2.608c0.198-0.142,0.411-0.255,0.623-0.341    c1.759-1.219,2.752-2.523,2.752-3.771C288.628,241.281,288.43,240.715,288.033,240.176z M288.033,225.938    c-0.271-0.396-0.611-0.794-1.021-1.163c-0.767,0.396-1.588,0.795-2.439,1.163l-0.028,0.028l-0.17,0.057l-0.198,0.086l-0.17,0.084    l-0.185,0.086h-0.016l-0.17,0.085l-0.198,0.057l-0.015,0.028l-0.17,0.057l-0.198,0.086h-0.015l-0.184,0.084l-0.185,0.057h-0.028    l-0.17,0.085l-0.198,0.085h-0.014l-0.185,0.058l-0.17,0.056l-0.044,0.029l-0.198,0.057l-0.411,0.17h-0.042l-0.156,0.057    l-0.198,0.057l-0.014,0.029l-0.214,0.057l-0.141,0.056h-0.058l-0.213,0.085l-0.1,0.029l-0.112,0.027    c-1.9,0.625-3.957,1.163-6.126,1.646l-2.255,0.453l0,0l-1.759,0.311h-0.014l-0.284,0.058l-0.17,0.028l-0.425,0.057h-0.028    l-0.284,0.057l-0.17,0.029l-0.114,0.027l-0.609,0.086l-0.184,0.028l-0.936,0.113h-0.114l-0.313,0.057h-0.042l-0.271,0.028    l-0.566,0.085h-0.056h-0.059l-0.254,0.028l-0.227,0.029h-0.086l-0.313,0.027l-0.07,0.028h-0.24l-0.242,0.028l-0.396,0.057h-0.084    l-0.242,0.028h-0.24l-0.072,0.028l-0.325,0.029h-0.1l-0.227,0.027h-0.256h-0.057l-0.34,0.029l-0.086,0.027h-0.227l-0.269,0.028    h-0.058l-0.326,0.029h-0.112h-0.227l-0.271,0.028h-0.042l-0.341,0.027h-0.113h-0.213l-0.298,0.029h-0.028l-0.341,0.028h-0.128    h-0.198h-0.297h-0.029l-0.341,0.028h-0.14h-0.199l-0.312,0.028h-0.028h-0.326h-0.156h-0.184h-0.327h-0.014l-0.326,0.028h-0.17    h-0.17h-0.34l0,0h-0.341h-0.17h-0.17h-0.354h-0.34h-0.17h-0.17h-0.34h-0.014h-0.326h-0.185h-0.154l-0.326-0.028h-0.03h-0.311    h-0.198h-0.142h-0.34h-0.028l-0.313-0.028h-0.198h-0.128l-0.34-0.028h-0.028h-0.298h-0.198h-0.142l-0.327-0.028h-0.042    l-0.283-0.029H248.2h-0.126l-0.326-0.027h-0.042l-0.284-0.028h-0.226h-0.114l-0.313-0.029h-0.056l-0.27-0.028h-0.227l-0.1-0.027    l-0.325-0.029h-0.072h-0.254l-0.228-0.027h-0.084l-0.327-0.029l-0.07-0.028H244.5l-0.227-0.028h-0.086l-0.396-0.057l-0.24-0.028    h-0.242l-0.084-0.028l-0.313-0.027h-0.084l-0.228-0.029l-0.254-0.028h-0.056h-0.044l-0.581-0.085l-0.254-0.028h-0.058    l-0.311-0.057h-0.1l-0.936-0.113l-0.184-0.028l-0.271-0.057h-0.042l-0.298-0.029l-0.128-0.027l-0.17-0.029l-0.282-0.057h-0.014    l-0.44-0.057l-0.17-0.028l-0.282-0.058l0,0l-0.879-0.141l0,0l-0.879-0.17l0,0l-2.269-0.453c-1.079-0.229-2.157-0.483-3.178-0.767    l-0.084-0.028c-0.765-0.199-1.488-0.397-2.212-0.623l-0.014-0.029l-0.198-0.057l-0.184-0.057h-0.028l-0.212-0.086l-0.128-0.027    l-0.084-0.029l-0.214-0.085h-0.07l-0.142-0.056l-0.198-0.057l-0.014-0.029l-0.198-0.057l-0.156-0.057h-0.056l-0.2-0.086    l-0.099-0.027l-0.1-0.057l-0.199-0.057l-0.056-0.029l-0.142-0.056l-0.198-0.058l-0.198-0.085l-0.198-0.085l0,0l-0.2-0.057    l-0.198-0.084l0,0l-0.198-0.086l-0.368-0.142l-0.185-0.085h-0.014l-0.184-0.086l-0.184-0.084l0,0l-0.198-0.086l-0.156-0.057    l-0.014-0.028l-0.184-0.056l-0.17-0.086h-0.014l-0.184-0.085l-0.865-0.425H221.6l-0.667-0.341h-0.014l-0.326-0.171    c-0.427,0.369-0.767,0.767-1.049,1.163c-0.383,0.538-0.597,1.106-0.597,1.588c0,1.249,0.993,2.524,2.751,3.772    c0.212,0.084,0.426,0.199,0.625,0.34c2.992,1.957,7.458,3.631,12.903,4.821c3.134,0.709,6.58,1.22,10.239,1.532l0,0l0.313,0.027    h0.126l0.156,0.028l0.596,0.029l0.141,0.028h0.17l0.284,0.027h0.014h0.298l0.142,0.029h0.168l0.298,0.027h0.014h0.298l0.142,0.029    h0.156h0.311l0,0l0.313,0.028h0.142h0.17l0.298,0.028h0.014h0.297h0.156h0.156l0.298,0.027h0.014h0.313h0.156h0.156l0.311,0.029    h0.014h0.313h0.142h0.17h0.313l0,0h0.313h0.17h0.155h0.312h0.327h0.156h0.156h0.313l0,0h0.311h0.17h0.156h0.312h0.014l0.313-0.029    h0.156h0.156h0.311l0,0l0.312-0.027h0.142h0.171h0.298h0.015l0.298-0.028h0.154h0.143l0.313-0.028h0.014h0.298h0.171l0.142-0.029    h0.297h0.014l0.284-0.027h0.171l0.142-0.029h0.313l0,0l0.297-0.027h0.156l0.142-0.028l0.595-0.029l0.171-0.028h0.142l0.284-0.027    h0.015c3.672-0.313,7.103-0.823,10.223-1.532c2.808-0.596,5.361-1.333,7.586-2.184l0.044-0.028    c2.068-0.794,3.856-1.673,5.274-2.609c0.213-0.141,0.425-0.256,0.623-0.34c1.772-1.248,2.752-2.523,2.752-3.772    C288.628,227.045,288.43,226.477,288.033,225.938z M279.723,192.418c-6.551-2.468-15.711-4-25.936-4    c-10.209,0-19.383,1.532-25.935,4c-5.501,2.069-8.905,4.508-8.905,6.805c0,1.249,0.965,2.496,2.681,3.717    c0.212,0.084,0.438,0.227,0.637,0.34c1.434,0.965,3.22,1.844,5.304,2.638l0.028,0.028l0.17,0.057l0.084,0.027l0.525,0.199    l0.1,0.029l0.112,0.056l0.427,0.142l0.098,0.028c1.83,0.624,3.843,1.191,6.014,1.646c2.381,0.539,4.948,0.964,7.642,1.276h0.058    l0.24,0.028l0.185,0.027h0.114l2.055,0.199l0.044,0.028h0.254l0.185,0.028h0.114l0.907,0.085h0.298h0.028l0.284,0.028h0.17    l0.141,0.029h0.298h0.028l0.285,0.027h0.17h0.128l0.311,0.028h0.028h0.284l0.17,0.028h0.142l0.313,0.029h0.014h0.297h0.17h0.142    l0.313,0.027l0,0h0.313h0.17h0.143h0.311h0.014l0.313,0.029h0.156h0.156h0.326l0,0h0.313h0.17h0.141h0.326h0.327h0.156h0.156    h0.313h0.014h0.311h0.156h0.17l0.313-0.029l0,0h0.313h0.156h0.156h0.311l0,0l0.312-0.027h0.142h0.171h0.313l0,0l0.312-0.029h0.141    l0.17-0.028h0.299h0.014l0.313-0.028h0.143h0.17l0.282-0.027h0.028h0.299l0.128-0.029h0.17l0.284-0.028h0.028h0.311l0.909-0.085    h0.112l0.17-0.028h0.271l0.042-0.028l2.057-0.199h0.098l0.198-0.027l0.229-0.028h0.056c2.71-0.313,5.275-0.737,7.658-1.276    c2.396-0.511,4.608-1.135,6.578-1.844l0.059-0.027l0.566-0.199l0.057-0.029l0.142-0.027l0.114-0.057l0.084-0.028l0.396-0.171h0.03    l0.17-0.057l0.084-0.027l0.114-0.058c1.759-0.737,3.261-1.503,4.508-2.354c0.198-0.113,0.385-0.227,0.583-0.311    c1.714-1.221,2.68-2.468,2.68-3.717C288.628,196.926,285.226,194.487,279.723,192.418z M282.588,212.694l-0.326,0.113    l-1.063,0.397h-0.03c-2.196,0.794-4.594,1.445-7.146,2.014c-2.751,0.596-5.687,1.077-8.793,1.445l-0.168,0.029l-1.264,0.113    h-0.014l-0.949,0.086h-0.015l-0.482,0.057h-0.17l-0.313,0.027l0,0l-0.326,0.028h-0.156l-0.169,0.029l-0.326,0.028h-0.014h-0.313    l-0.17,0.027h-0.171l-0.326,0.029h-0.014h-0.313l-0.17,0.027h-0.171l-0.34,0.029l0,0h-0.327h-0.17l-0.17,0.028h-0.325l-0.34,0.028    h-0.17h-0.171h-0.34l-0.34,0.027h-0.17h-0.17h-0.34l0,0l-0.34,0.029h-0.17h-0.17h-0.34l0,0h-0.341h-0.17h-0.17h-0.354h-0.34h-0.17    h-0.17h-0.34h-0.014h-0.34h-0.17h-0.17l-0.341-0.029l0,0h-0.338h-0.17h-0.17l-0.34-0.027h-0.341h-0.156h-0.17l-0.34-0.028h-0.327    l-0.17-0.028h-0.17h-0.34l0,0l-0.34-0.029H248.2l-0.17-0.027h-0.325l0,0l-0.34-0.029h-0.17l-0.156-0.027h-0.327l0,0l-0.326-0.028    l-0.17-0.029h-0.156l-0.327-0.028h-0.014l-0.312-0.027h-0.17l-0.481-0.057l0,0l-0.965-0.086l0,0l-1.276-0.113l-0.17-0.029    c-3.092-0.34-6.042-0.821-8.777-1.445c-2.481-0.539-4.808-1.191-6.949-1.929l-0.212-0.085h-0.028l-0.17-0.057l-0.879-0.341    l-0.128-0.028l-0.198-0.085l-0.07-0.028l-0.313-0.113l-0.086-0.028l-0.112-0.058l-0.198-0.084l-0.058-0.029l-0.142-0.027    l-0.185-0.086l-0.056-0.027l-0.128-0.057l-0.198-0.086l-0.042-0.027l-0.326-0.143h-0.042l-0.142-0.057l-0.185-0.086l-0.042-0.027    c-0.781-0.369-1.504-0.709-2.199-1.078l-0.935,1.078c-0.396,0.539-0.597,1.077-0.597,1.56c0,1.276,0.993,2.553,2.779,3.8    c0.228,0.086,0.455,0.199,0.653,0.341c2.978,1.956,7.43,3.63,12.847,4.793c3.148,0.709,6.58,1.22,10.239,1.531l0,0l0.313,0.028    h0.126l0.156,0.028l0.596,0.028l0.141,0.029h0.17l0.284,0.027h0.014h0.298l0.142,0.028h0.168l0.298,0.029h0.014h0.298l0.142,0.028    h0.156h0.311l0,0l0.313,0.027h0.142h0.17l0.298,0.029h0.014h0.297h0.156h0.156l0.298,0.027h0.014h0.326h0.142h0.17l0.296,0.029    h0.014h0.313h0.142h0.17h0.313l0,0h0.313h0.17h0.155h0.312h0.327h0.156h0.156h0.313l0,0h0.311h0.17h0.156h0.312h0.014l0.313-0.029    h0.156h0.156h0.311l0,0l0.312-0.027h0.142h0.171h0.298h0.015l0.298-0.029h0.154h0.143l0.313-0.027h0.014h0.298h0.171l0.142-0.028    h0.297h0.014l0.284-0.029h0.171l0.142-0.028h0.313l0,0l0.297-0.027h0.156l0.142-0.029l0.595-0.028l0.171-0.028h0.142l0.284-0.028    h0.015c3.672-0.312,7.103-0.822,10.223-1.531c1.191-0.255,2.339-0.511,3.433-0.823h0.014l0.24-0.085l0.086-0.028l0.141-0.027    c0.767-0.228,1.504-0.454,2.213-0.682l0.014-0.027l0.625-0.199l0.014-0.028l0.213-0.058l0.084-0.027l0.313-0.113l0.014-0.028    l0.198-0.057l0.044-0.028l0.156-0.057l0.099-0.028l0.1-0.058l0.143-0.057l0.056-0.027c1.843-0.709,3.431-1.533,4.736-2.383    c0.17-0.113,0.354-0.227,0.539-0.313c1.814-1.247,2.808-2.523,2.808-3.8c0-0.482-0.198-1.021-0.581-1.56    c-0.242-0.369-0.555-0.737-0.938-1.078c-0.977,0.512-2.04,1.021-3.176,1.504l-0.128,0.057l-0.057,0.027l-0.198,0.086l-0.128,0.027    l-0.07,0.029l-0.313,0.142l-0.056,0.028l-0.341,0.113L282.588,212.694z M253.787,181.158c11.032,0,21.115,1.73,28.475,4.48    c8.423,3.148,13.625,7.941,13.625,13.584c0,2.554-1.049,4.906-2.964,7.035c0.398,0.424,0.753,0.879,1.079,1.332    c1.234,1.758,1.885,3.688,1.885,5.7c0,2.581-1.077,4.962-3.033,7.118c0.396,0.426,0.78,0.907,1.105,1.361    c1.263,1.787,1.928,3.744,1.928,5.757c0,2.581-1.077,4.964-3.033,7.119c0.396,0.425,0.78,0.88,1.105,1.36    c1.263,1.787,1.928,3.744,1.928,5.758c0,2.58-1.077,4.963-3.033,7.09c0.396,0.454,0.78,0.907,1.105,1.389    c1.263,1.787,1.928,3.717,1.928,5.758c0,5.672-5.202,10.437-13.625,13.584c-7.359,2.779-17.442,4.48-28.475,4.48    c-11.018,0-21.099-1.701-28.458-4.48c-8.423-3.147-13.641-7.912-13.641-13.584c0-2.041,0.681-3.971,1.928-5.758    c0.34-0.453,0.709-0.935,1.12-1.36c-1.971-2.155-3.048-4.538-3.048-7.118c0-2.014,0.681-3.971,1.928-5.758    c0.34-0.48,0.709-0.936,1.12-1.36c-1.971-2.155-3.048-4.538-3.048-7.119c0-2.042,0.681-3.97,1.928-5.757    c0.34-0.454,0.709-0.936,1.12-1.361c-1.971-2.156-3.048-4.537-3.048-7.118c0-2.013,0.652-3.942,1.886-5.7l0.156-0.227    c0.282-0.369,0.595-0.738,0.935-1.105c-1.928-2.129-2.978-4.481-2.978-7.035c0-5.643,5.218-10.436,13.641-13.584    C232.688,182.889,242.769,181.158,253.787,181.158z M237.042,201.011c-1.928,0-3.488-1.56-3.488-3.489    c0-1.928,1.56-3.488,3.488-3.488h33.507c1.914,0,3.488,1.561,3.488,3.488c0,1.93-1.574,3.489-3.488,3.489H237.042z     M140.618,401.543c1.786-0.681,3.799,0.198,4.48,2.014c0.681,1.787-0.212,3.8-2.013,4.481    c-13.443,5.132-25.667,6.976-36.004,6.267c-11.585-0.822-20.887-4.906-27.055-11.315c-5.97-6.211-10.195-15.37-11.359-26.601    c-1.007-9.785,0.271-21.186,4.708-33.607c0.625-1.814,2.638-2.779,4.438-2.127c1.816,0.652,2.766,2.638,2.113,4.453    c-4.069,11.4-5.245,21.779-4.338,30.572c0.991,9.613,4.508,17.355,9.444,22.488c4.977,5.162,12.733,8.508,22.545,9.188    C116.952,408.009,128.168,406.279,140.618,401.543z M64.557,467.31c-1.928,0-3.488-1.56-3.488-3.488s1.56-3.488,3.488-3.488    h274.382c1.914,0,3.488,1.56,3.488,3.488s-1.574,3.488-3.488,3.488H64.557z M225.215,485.999c-1.929,0-3.489-1.561-3.489-3.489    c0-1.928,1.56-3.487,3.489-3.487h189.869c1.929,0,3.488,1.56,3.488,3.487c0,1.929-1.56,3.489-3.488,3.489H225.215z     M434.524,485.999c-1.914,0-3.488-1.561-3.488-3.489c0-1.928,1.574-3.487,3.488-3.487h23.738c1.915,0,3.489,1.56,3.489,3.487    c0,1.929-1.574,3.489-3.489,3.489H434.524z M53.737,485.432c-1.914,0-3.488-1.56-3.488-3.488s1.574-3.488,3.488-3.488h89.972    c1.928,0,3.488,1.56,3.488,3.488s-1.56,3.488-3.488,3.488H53.737z M255.121,160.455c5.897,0,11.727,0.086,17.512,0.228    c-5.857-5.247-11.698-10.267-17.512-15.06c-5.8,4.793-11.643,9.813-17.513,15.06C243.38,160.541,249.221,160.455,255.121,160.455z    " style="fill-rule:evenodd;clip-rule:evenodd;"/></g></g><g id="Layer_1"/></svg>